# xmcd
#
# Track frame offsets:
#	150
#	11517
#	24622
#	34712
#	49880
#	61105
#	72622
#	80372
#	91250
#	104892
#	122062
#	135132
#	145827
#	157800
#
# Disc length: 2246
#
# Revision: 2
# Processed by: cddbd v1.5.1PL0 Copyright (c) Steve Scherf et al.
# Submitted via: EasyCDDAExtractor 5.0.0.0
# Normalized: r0:TSWAP
#
DISCID=b408c40e
DTITLE=Various Artist - The Heart You Break - Country Tear Jerkers
DYEAR=1900
DGENRE=Country
TTITLE0=Roy Drusky - Blue eyes crying in the rain
TTITLE1=Kenny Rogers and The First Edition - Ruby don't take your love to town
TTITLE2=Willie Nelson - I didn't sleep a wink
TTITLE3=Barbara Fairchild - Slippin' away
TTITLE4=Razzy Bailey - 9,999,999 tears
TTITLE5=Guy Mitchell - Heartaches by the number
TTITLE6=Roy Drusky - Hello walls
TTITLE7=Tex Ritter - Have I stayed away too long?
TTITLE8=Don Williams - Where do we go from here
TTITLE9=Johnny Lee - Your song
TTITLE10=Donna Fargo - Daddy
TTITLE11=Billie Jo Spears - I'm so lonesome I could cry
TTITLE12=Billie Jo Spears - What have they done to my song ma
TTITLE13=Patsy Cline - The heart you break may be your own
EXTD=
EXTT0=
EXTT1=
EXTT2=
EXTT3=
EXTT4=
EXTT5=
EXTT6=
EXTT7=
EXTT8=
EXTT9=
EXTT10=
EXTT11=
EXTT12=
EXTT13=
PLAYORDER=
